<svg xmlns="http://www.w3.org/2000/svg" xmlns:xlink="http://www.w3.org/1999/xlink" width="500" zoomAndPan="magnify" viewBox="0 0 375 374.999991" height="500" preserveAspectRatio="xMidYMid meet" version="1.0"><defs><g/><clipPath id="f9d0a8941f"><path d="M 107 145 L 117.519531 145 L 117.519531 183.75 L 107 183.75 Z M 107 145 " clip-rule="nonzero"/></clipPath><clipPath id="7a58790ab9"><path d="M 94 156 L 105 156 L 105 183.75 L 94 183.75 Z M 94 156 " clip-rule="nonzero"/></clipPath><clipPath id="bf1a7857c3"><path d="M 81 168 L 92 168 L 92 183.75 L 81 183.75 Z M 81 168 " clip-rule="nonzero"/></clipPath><clipPath id="21cfee2cf1"><path d="M 69 176 L 79 176 L 79 183.75 L 69 183.75 Z M 69 176 " clip-rule="nonzero"/></clipPath><clipPath id="a500c4db76"><path d="M 68.769531 135 L 115 135 L 115 180 L 68.769531 180 Z M 68.769531 135 " clip-rule="nonzero"/></clipPath></defs><g clip-path="url(#f9d0a8941f)"><path fill="#000000" d="M 114.714844 145.28125 L 113.730469 154.296875 L 110.832031 149.28125 C 109.796875 150.554688 108.773438 151.773438 107.75 152.957031 L 107.75 183.957031 L 117.421875 183.957031 L 117.421875 145.28125 L 114.714844 145.28125 " fill-opacity="1" fill-rule="nonzero"/></g><g clip-path="url(#7a58790ab9)"><path fill="#000000" d="M 94.859375 165.875 L 94.859375 183.957031 L 104.527344 183.957031 L 104.527344 156.558594 C 104.410156 156.6875 104.289062 156.8125 104.171875 156.941406 C 101.097656 160.230469 97.96875 163.230469 94.859375 165.875 " fill-opacity="1" fill-rule="nonzero"/></g><g clip-path="url(#bf1a7857c3)"><path fill="#000000" d="M 81.96875 174.925781 L 81.96875 183.957031 L 91.636719 183.957031 L 91.636719 168.492188 C 88.511719 170.910156 85.335938 173.03125 82.164062 174.816406 C 82.097656 174.855469 82.03125 174.890625 81.96875 174.925781 " fill-opacity="1" fill-rule="nonzero"/></g><g clip-path="url(#21cfee2cf1)"><path fill="#000000" d="M 69.074219 180.179688 L 69.074219 183.957031 L 78.746094 183.957031 L 78.746094 176.613281 C 75.578125 178.164062 72.363281 179.421875 69.144531 180.367188 L 69.074219 180.179688 " fill-opacity="1" fill-rule="nonzero"/></g><g clip-path="url(#a500c4db76)"><path fill="#cbb26a" d="M 114.542969 134.996094 L 101.679688 143.351562 L 105.839844 143.589844 C 103.84375 146.796875 101.746094 149.933594 99.511719 152.96875 C 96.835938 156.605469 93.964844 160.097656 90.839844 163.363281 C 87.714844 166.625 84.335938 169.660156 80.660156 172.335938 C 76.988281 175.015625 73.015625 177.328125 68.78125 179.128906 C 73.195312 177.835938 77.476562 175.976562 81.53125 173.695312 C 85.585938 171.410156 89.421875 168.707031 93.03125 165.726562 C 96.640625 162.742188 100.03125 159.488281 103.230469 156.0625 C 105.945312 153.152344 108.527344 150.121094 111.003906 147.007812 L 112.878906 150.246094 L 114.542969 134.996094 " fill-opacity="1" fill-rule="nonzero"/></g><g fill="#000000" fill-opacity="1"><g transform="translate(119.524852, 184.377546)"><g><path d="M 20.921875 0.71875 C 17.679688 0.71875 14.875 0.171875 12.5 -0.921875 C 10.132812 -2.015625 8.175781 -3.5 6.625 -5.375 C 5.070312 -7.25 3.910156 -9.40625 3.140625 -11.84375 C 2.378906 -14.28125 2 -16.84375 2 -19.53125 C 2 -22.226562 2.378906 -24.796875 3.140625 -27.234375 C 3.910156 -29.671875 5.070312 -31.828125 6.625 -33.703125 C 8.175781 -35.578125 10.132812 -37.050781 12.5 -38.125 C 14.875 -39.195312 17.679688 -39.734375 20.921875 -39.734375 C 24.117188 -39.734375 26.894531 -39.1875 29.25 -38.09375 C 31.601562 -37.007812 33.476562 -35.492188 34.875 -33.546875 C 36.269531 -31.609375 37.140625 -29.359375 37.484375 -26.796875 L 29.453125 -26.796875 C 29.117188 -28.878906 28.15625 -30.457031 26.5625 -31.53125 C 24.976562 -32.601562 23.03125 -33.140625 20.71875 -33.140625 C 18.320312 -33.140625 16.304688 -32.566406 14.671875 -31.421875 C 13.035156 -30.285156 11.789062 -28.691406 10.9375 -26.640625 C 10.09375 -24.597656 9.671875 -22.226562 9.671875 -19.53125 C 9.671875 -16.84375 10.09375 -14.46875 10.9375 -12.40625 C 11.789062 -10.34375 13.035156 -8.738281 14.671875 -7.59375 C 16.304688 -6.445312 18.320312 -5.875 20.71875 -5.875 C 23.03125 -5.875 24.96875 -6.4375 26.53125 -7.5625 C 28.101562 -8.6875 29.078125 -10.394531 29.453125 -12.6875 L 37.484375 -12.6875 C 37.140625 -9.988281 36.269531 -7.632812 34.875 -5.625 C 33.476562 -3.613281 31.601562 -2.050781 29.25 -0.9375 C 26.894531 0.164062 24.117188 0.71875 20.921875 0.71875 Z M 20.921875 0.71875 "/></g></g></g><g fill="#000000" fill-opacity="1"><g transform="translate(158.746097, 184.377546)"><g><path d="M 10.84375 0 L 3.484375 0 L 3.484375 -39.015625 L 10.84375 -39.015625 L 10.84375 -21.6875 L 24.59375 -39.015625 L 33.59375 -39.015625 L 18.046875 -20.203125 L 34.109375 0 L 24.953125 0 L 10.84375 -18.109375 Z M 10.84375 0 "/></g></g></g><g fill="#000000" fill-opacity="1"><g transform="translate(190.501218, 184.377546)"><g><path d="M 20.921875 0.71875 C 17.679688 0.71875 14.875 0.171875 12.5 -0.921875 C 10.132812 -2.015625 8.175781 -3.5 6.625 -5.375 C 5.070312 -7.25 3.910156 -9.40625 3.140625 -11.84375 C 2.378906 -14.28125 2 -16.84375 2 -19.53125 C 2 -22.226562 2.378906 -24.796875 3.140625 -27.234375 C 3.910156 -29.671875 5.070312 -31.828125 6.625 -33.703125 C 8.175781 -35.578125 10.132812 -37.050781 12.5 -38.125 C 14.875 -39.195312 17.679688 -39.734375 20.921875 -39.734375 C 24.117188 -39.734375 26.894531 -39.1875 29.25 -38.09375 C 31.601562 -37.007812 33.476562 -35.492188 34.875 -33.546875 C 36.269531 -31.609375 37.140625 -29.359375 37.484375 -26.796875 L 29.453125 -26.796875 C 29.117188 -28.878906 28.15625 -30.457031 26.5625 -31.53125 C 24.976562 -32.601562 23.03125 -33.140625 20.71875 -33.140625 C 18.320312 -33.140625 16.304688 -32.566406 14.671875 -31.421875 C 13.035156 -30.285156 11.789062 -28.691406 10.9375 -26.640625 C 10.09375 -24.597656 9.671875 -22.226562 9.671875 -19.53125 C 9.671875 -16.84375 10.09375 -14.46875 10.9375 -12.40625 C 11.789062 -10.34375 13.035156 -8.738281 14.671875 -7.59375 C 16.304688 -6.445312 18.320312 -5.875 20.71875 -5.875 C 23.03125 -5.875 24.96875 -6.4375 26.53125 -7.5625 C 28.101562 -8.6875 29.078125 -10.394531 29.453125 -12.6875 L 37.484375 -12.6875 C 37.140625 -9.988281 36.269531 -7.632812 34.875 -5.625 C 33.476562 -3.613281 31.601562 -2.050781 29.25 -0.9375 C 26.894531 0.164062 24.117188 0.71875 20.921875 0.71875 Z M 20.921875 0.71875 "/></g></g></g><g fill="#000000" fill-opacity="1"><g transform="translate(229.722463, 184.377546)"><g><path d="M 10.84375 0 L 3.484375 0 L 3.484375 -39.015625 L 11.765625 -39.015625 L 27.765625 -11.09375 L 27.765625 -39.015625 L 35.140625 -39.015625 L 35.140625 0 L 26.796875 0 L 10.84375 -27.96875 Z M 10.84375 0 "/></g></g></g><g fill="#000000" fill-opacity="1"><g transform="translate(268.330072, 184.377546)"><g><path d="M 20.921875 0.71875 C 17.710938 0.71875 14.914062 0.171875 12.53125 -0.921875 C 10.144531 -2.015625 8.175781 -3.5 6.625 -5.375 C 5.070312 -7.25 3.910156 -9.40625 3.140625 -11.84375 C 2.378906 -14.28125 2 -16.84375 2 -19.53125 C 2 -22.226562 2.378906 -24.796875 3.140625 -27.234375 C 3.910156 -29.671875 5.070312 -31.828125 6.625 -33.703125 C 8.175781 -35.578125 10.144531 -37.050781 12.53125 -38.125 C 14.914062 -39.195312 17.710938 -39.734375 20.921875 -39.734375 C 24.160156 -39.734375 26.972656 -39.195312 29.359375 -38.125 C 31.742188 -37.050781 33.710938 -35.578125 35.265625 -33.703125 C 36.816406 -31.828125 37.972656 -29.671875 38.734375 -27.234375 C 39.503906 -24.796875 39.890625 -22.226562 39.890625 -19.53125 C 39.890625 -16.84375 39.503906 -14.28125 38.734375 -11.84375 C 37.972656 -9.40625 36.816406 -7.25 35.265625 -5.375 C 33.710938 -3.5 31.742188 -2.015625 29.359375 -0.921875 C 26.972656 0.171875 24.160156 0.71875 20.921875 0.71875 Z M 20.921875 -5.875 C 23.335938 -5.875 25.378906 -6.445312 27.046875 -7.59375 C 28.722656 -8.738281 30.003906 -10.34375 30.890625 -12.40625 C 31.773438 -14.46875 32.21875 -16.84375 32.21875 -19.53125 C 32.21875 -22.226562 31.773438 -24.585938 30.890625 -26.609375 C 30.003906 -28.640625 28.722656 -30.226562 27.046875 -31.375 C 25.378906 -32.519531 23.335938 -33.09375 20.921875 -33.09375 C 18.566406 -33.09375 16.546875 -32.519531 14.859375 -31.375 C 13.171875 -30.226562 11.882812 -28.640625 11 -26.609375 C 10.113281 -24.585938 9.671875 -22.226562 9.671875 -19.53125 C 9.671875 -16.84375 10.113281 -14.46875 11 -12.40625 C 11.882812 -10.34375 13.171875 -8.738281 14.859375 -7.59375 C 16.546875 -6.445312 18.566406 -5.875 20.921875 -5.875 Z M 20.921875 -5.875 "/></g></g></g><g fill="#000000" fill-opacity="1"><g transform="translate(308.931821, 184.377546)"><g><path d="M 19.796875 0 L 12.421875 0 L 12.421875 -32.421875 L 0.515625 -32.421875 L 0.515625 -39.015625 L 31.65625 -39.015625 L 31.65625 -32.421875 L 19.796875 -32.421875 Z M 19.796875 0 "/></g></g></g><g fill="#000000" fill-opacity="1"><g transform="translate(341.14744, 184.377546)"><g><path d="M 29.515625 0 L 3.484375 0 L 3.484375 -39.015625 L 29.515625 -39.015625 L 29.515625 -32.421875 L 10.84375 -32.421875 L 10.84375 -22.8125 L 27.5625 -22.8125 L 27.5625 -16.265625 L 10.84375 -16.265625 L 10.84375 -6.59375 L 29.515625 -6.59375 Z M 29.515625 0 "/></g></g></g><g fill="#000000" fill-opacity="1"><g transform="translate(0.0000045, 184.377546)"><g><path d="M 19.59375 0 L 3.484375 0 L 3.484375 -39.015625 L 18.921875 -39.015625 C 23.691406 -39.015625 27.132812 -37.957031 29.25 -35.84375 C 30.851562 -34.25 31.65625 -32.050781 31.65625 -29.25 C 31.65625 -27.03125 31.148438 -25.132812 30.140625 -23.5625 C 29.140625 -22 27.71875 -20.976562 25.875 -20.5 C 28.394531 -20.09375 30.320312 -19.097656 31.65625 -17.515625 C 32.988281 -15.929688 33.65625 -13.878906 33.65625 -11.359375 C 33.65625 -9.484375 33.320312 -7.84375 32.65625 -6.4375 C 31.988281 -5.039062 31.160156 -3.914062 30.171875 -3.0625 C 29.046875 -2.144531 27.789062 -1.460938 26.40625 -1.015625 C 25.03125 -0.578125 23.738281 -0.296875 22.53125 -0.171875 C 21.320312 -0.0546875 20.34375 0 19.59375 0 Z M 10.84375 -32.421875 L 10.84375 -22.8125 L 18.46875 -22.8125 C 20.34375 -22.8125 21.769531 -23.226562 22.75 -24.0625 C 23.738281 -24.894531 24.234375 -26.097656 24.234375 -27.671875 C 24.234375 -29.203125 23.773438 -30.328125 22.859375 -31.046875 C 21.804688 -31.960938 19.945312 -32.421875 17.28125 -32.421875 Z M 10.84375 -16.828125 L 10.84375 -6.59375 L 18.671875 -6.59375 C 19.660156 -6.59375 20.734375 -6.675781 21.890625 -6.84375 C 23.046875 -7.019531 24.015625 -7.445312 24.796875 -8.125 C 25.273438 -8.5 25.632812 -8.992188 25.875 -9.609375 C 26.113281 -10.222656 26.234375 -10.992188 26.234375 -11.921875 C 26.234375 -13.453125 25.882812 -14.554688 25.1875 -15.234375 C 24.488281 -15.921875 23.617188 -16.359375 22.578125 -16.546875 C 21.535156 -16.734375 20.503906 -16.828125 19.484375 -16.828125 Z M 10.84375 -16.828125 "/></g></g></g><g fill="#000000" fill-opacity="1"><g transform="translate(35.692871, 184.377546)"><g><path d="M 27.359375 0 L 3.484375 0 L 3.484375 -39.015625 L 10.84375 -39.015625 L 10.84375 -6.59375 L 27.359375 -6.59375 Z M 27.359375 0 "/></g></g></g></svg>