<svg xmlns="http://www.w3.org/2000/svg" xmlns:xlink="http://www.w3.org/1999/xlink" width="500" zoomAndPan="magnify" viewBox="0 0 375 374.999991" height="500" preserveAspectRatio="xMidYMid meet" version="1.0"><defs><g/><clipPath id="661c41555c"><path d="M 332 128 L 361.25 128 L 361.25 242.410156 L 332 242.410156 Z M 332 128 " clip-rule="nonzero"/></clipPath><clipPath id="0157ef5722"><path d="M 294 161 L 324 161 L 324 242.410156 L 294 242.410156 Z M 294 161 " clip-rule="nonzero"/></clipPath><clipPath id="078d59c466"><path d="M 256 196 L 285 196 L 285 242.410156 L 256 242.410156 Z M 256 196 " clip-rule="nonzero"/></clipPath><clipPath id="33371abfc4"><path d="M 218 220 L 247 220 L 247 242.410156 L 218 242.410156 Z M 218 220 " clip-rule="nonzero"/></clipPath><clipPath id="b0d34a4864"><path d="M 217.25 97.660156 L 353 97.660156 L 353 229 L 217.25 229 Z M 217.25 97.660156 " clip-rule="nonzero"/></clipPath></defs><g clip-path="url(#661c41555c)"><path fill="#000000" d="M 353.25 128.097656 L 350.335938 154.78125 L 341.746094 139.941406 C 338.6875 143.703125 335.660156 147.316406 332.636719 150.8125 L 332.636719 242.578125 L 361.253906 242.578125 L 361.253906 128.097656 L 353.25 128.097656 " fill-opacity="1" fill-rule="nonzero"/></g><g clip-path="url(#0157ef5722)"><path fill="#000000" d="M 294.476562 189.050781 L 294.476562 242.578125 L 323.09375 242.578125 L 323.09375 161.472656 C 322.742188 161.855469 322.390625 162.234375 322.035156 162.613281 C 312.9375 172.351562 303.679688 181.226562 294.476562 189.050781 " fill-opacity="1" fill-rule="nonzero"/></g><g clip-path="url(#078d59c466)"><path fill="#000000" d="M 256.3125 215.84375 L 256.3125 242.578125 L 284.933594 242.578125 L 284.933594 196.796875 C 275.683594 203.953125 266.28125 210.238281 256.890625 215.523438 C 256.699219 215.632812 256.503906 215.734375 256.3125 215.84375 " fill-opacity="1" fill-rule="nonzero"/></g><g clip-path="url(#33371abfc4)"><path fill="#000000" d="M 218.152344 231.390625 L 218.152344 242.578125 L 246.773438 242.578125 L 246.773438 220.84375 C 237.40625 225.429688 227.882812 229.15625 218.355469 231.949219 L 218.152344 231.390625 " fill-opacity="1" fill-rule="nonzero"/></g><g clip-path="url(#b0d34a4864)"><path fill="#cbb26a" d="M 352.738281 97.652344 L 314.660156 122.386719 L 326.972656 123.09375 C 321.070312 132.582031 314.863281 141.867188 308.246094 150.855469 C 300.328125 161.613281 291.828125 171.949219 282.578125 181.613281 C 273.328125 191.273438 263.320312 200.257812 252.441406 208.183594 C 241.570312 216.105469 229.816406 222.957031 217.28125 228.289062 C 230.351562 224.457031 243.015625 218.960938 255.015625 212.199219 C 267.027344 205.4375 278.378906 197.429688 289.0625 188.609375 C 299.75 179.78125 309.777344 170.144531 319.246094 160.007812 C 327.289062 151.394531 334.933594 142.421875 342.265625 133.210938 L 347.804688 142.789062 L 352.738281 97.652344 " fill-opacity="1" fill-rule="nonzero"/></g><g fill="#000000" fill-opacity="1"><g transform="translate(13.727776, 243.792279)"><g><path d="M 57.96875 0 L 10.296875 0 L 10.296875 -115.46875 L 56 -115.46875 C 70.125 -115.46875 80.3125 -112.34375 86.5625 -106.09375 C 91.3125 -101.351562 93.6875 -94.84375 93.6875 -86.5625 C 93.6875 -80.007812 92.195312 -74.410156 89.21875 -69.765625 C 86.238281 -65.128906 82.023438 -62.101562 76.578125 -60.6875 C 84.046875 -59.476562 89.742188 -56.523438 93.671875 -51.828125 C 97.609375 -47.140625 99.578125 -41.0625 99.578125 -33.59375 C 99.578125 -28.050781 98.59375 -23.207031 96.625 -19.0625 C 94.664062 -14.925781 92.222656 -11.597656 89.296875 -9.078125 C 85.960938 -6.359375 82.253906 -4.34375 78.171875 -3.03125 C 74.085938 -1.71875 70.253906 -0.882812 66.671875 -0.53125 C 63.085938 -0.175781 60.1875 0 57.96875 0 Z M 32.078125 -95.953125 L 32.078125 -67.5 L 54.640625 -67.5 C 60.179688 -67.5 64.414062 -68.734375 67.34375 -71.203125 C 70.269531 -73.679688 71.734375 -77.238281 71.734375 -81.875 C 71.734375 -86.414062 70.375 -89.742188 67.65625 -91.859375 C 64.519531 -94.585938 59.019531 -95.953125 51.15625 -95.953125 Z M 32.078125 -49.796875 L 32.078125 -19.515625 L 55.234375 -19.515625 C 58.160156 -19.515625 61.335938 -19.765625 64.765625 -20.265625 C 68.203125 -20.773438 71.082031 -22.039062 73.40625 -24.0625 C 74.8125 -25.175781 75.867188 -26.640625 76.578125 -28.453125 C 77.285156 -30.265625 77.640625 -32.535156 77.640625 -35.265625 C 77.640625 -39.804688 76.601562 -43.082031 74.53125 -45.09375 C 72.46875 -47.113281 69.894531 -48.398438 66.8125 -48.953125 C 63.738281 -49.515625 60.6875 -49.796875 57.65625 -49.796875 Z M 32.078125 -49.796875 "/></g></g></g><g fill="#000000" fill-opacity="1"><g transform="translate(119.358242, 243.792279)"><g><path d="M 80.96875 0 L 10.296875 0 L 10.296875 -115.46875 L 32.078125 -115.46875 L 32.078125 -19.515625 L 80.96875 -19.515625 Z M 80.96875 0 "/></g></g></g></svg>